<?xml version="1.0" encoding="utf-8"?>
<!-- Generator: Adobe Illustrator 28.0.0, SVG Export Plug-In . SVG Version: 6.00 Build 0)  -->
<svg version="1.1" id="图层_1" xmlns="http://www.w3.org/2000/svg" xmlns:xlink="http://www.w3.org/1999/xlink" x="0px" y="0px"
	 viewBox="0 0 841.89 595.28" style="enable-background:new 0 0 841.89 595.28;" xml:space="preserve">
<style type="text/css">
	.st0{fill:#FFFFFF;}
</style>
<g>
	<g transform="translate(200,50)">
		<path class="st0" d="M35.9,268.39v-8.16h-8.45v-45.89h8.45v-8.26h29.18v8.26h8.54v21.22h-8.54v3.26h8.54v21.41h-8.54v8.16H35.9z
			 M39.65,255.33h21.7v-11.62H44.35v-12.96h16.99v-11.52h-21.7V255.33z"/>
		<path class="st0" d="M93.79,268.39v-8.16h-8.45v-45.89h8.45v-8.26h29.18v8.26h8.54v13.06h-12.29v-8.16h-21.7v11.52h16.99v12.96
			H97.54v11.62h21.7v-8.26h12.29v13.15h-8.54v8.16H93.79z"/>
		<path class="st0" d="M160.13,268.39v-32.83h-8.45v-8.16h-8.45v-21.31h12.19v16.42h8.45v8.26h4.8v-8.26h8.45v-16.42h12.29v21.31
			h-8.54v8.16h-8.45v32.83H160.13z"/>
		<path class="st0" d="M209.57,268.39v-8.16h-8.45v-45.89h8.45v-8.26h29.18v8.26h8.54v45.89h-8.54v8.16H209.57z M213.31,255.33h21.7
			v-36.1h-21.7V255.33z"/>
		<path class="st0" d="M259.01,268.39v-62.3h12.19v8.26h8.45v8.16h8.54v24.58h4.7v-40.99h12.29v62.3H292.9v-8.16h-8.45v-8.26h-8.54
			V227.4h-4.7v40.99H259.01z"/>
		<path class="st0" d="M316.89,268.39v-62.3h29.18v8.26h8.45v8.16h8.54v29.47h-8.54v8.26h-8.45v8.16H316.89z M329.09,255.33h13.25
			v-8.26h8.45V227.4h-8.45v-8.16h-13.25V255.33z"/>
		<path class="st0" d="M17.38,383.59v-8.16H8.93v-13.15h12.19v8.26h21.7v-11.62H17.38v-8.16H8.93v-21.22h8.45v-8.26h29.18v8.26h8.54
			v13.06H42.82v-8.16h-21.7v11.52h25.44v8.06h8.54v21.41h-8.54v8.16H17.38z"/>
		<path class="st0" d="M66.82,383.59v-13.06h8.45v-36.1h-8.45v-13.15H96v13.15h-8.54v36.1H96v13.06H66.82z"/>
		<path class="st0" d="M116.16,383.59v-8.16h-8.45v-54.14h12.19v49.25h21.7v-8.26h12.29v13.15h-8.54v8.16H116.16z"/>
		<path class="st0" d="M174.05,383.59v-8.16h-8.45v-45.89h8.45v-8.26h29.18v8.26h8.54v13.06h-12.29v-8.16h-21.7v11.52h16.99v12.96
			h-16.99v11.62h21.7v-8.26h12.29v13.15h-8.54v8.16H174.05z"/>
		<path class="st0" d="M223.49,383.59v-62.3h12.19v8.26h8.45v8.16h8.54v24.58h4.7v-40.99h12.29v62.3h-12.29v-8.16h-8.45v-8.26h-8.54
			V342.6h-4.7v40.99H223.49z"/>
		<path class="st0" d="M285.98,383.59v-8.16h-8.45v-45.89h8.45v-8.26h29.18v8.26h8.54v21.22h-12.29v-16.32h-21.7v36.1h21.7v-16.51
			h12.29v21.41h-8.54v8.16H285.98z"/>
		<path class="st0" d="M343.87,383.59v-8.16h-8.45v-45.89h8.45v-8.26h29.18v8.26h8.54v13.06h-12.29v-8.16h-21.7v11.52h16.99v12.96
			h-16.99v11.62h21.7v-8.26h12.29v13.15h-8.54v8.16H343.87z"/>
	</g>
</g>
</svg>
